<svg version="1.1" id="graphane" xmlns="http://www.w3.org/2000/svg" viewBox="0 0 225 60">
<g>
    <path fill="#00D800" d="M47.3,20H35.1L29,30.8l6.1,10.8h12.3l6.1-10.8L47.3,20z M46.6,40.2H35.9l-5.4-9.4l5.4-9.4h10.7l5.4,9.4 L46.6,40.2z"/>
    <path fill="#0000D8" d="M14.6,31.5L8.5,42.2L14.6,53h12.3L33,42.2l-6.1-10.8C26.9,31.5,14.6,31.5,14.6,31.5z M26.1,51.7H15.4L10,42.2 l5.4-9.4h10.7l5.4,9.4L26.1,51.7z"/>
    <path fill="#D80000" d="M26.9,29.5L33,18.8L26.9,8H14.6L8.5,18.8l6.1,10.8H26.9L26.9,29.5z M15.4,9.3h10.7l5.4,9.4l-5.4,9.4H15.4 L10,18.8L15.4,9.3z"/>
</g>
<g fill="#3c3c43">
	<path d="M64.9,46.2c0-0.5,0.2-0.8,0.7-0.8c0.1,0,0.3,0,0.4,0.1c0.1,0.1,0.2,0.1,0.3,0.2c0.1,0.1,0.2,0.2,0.4,0.4
		c0.2,0.2,0.4,0.3,0.6,0.5c1.1,0.9,2.5,1.4,4.2,1.4c2.2,0,3.7-0.6,4.8-1.8c1-1.2,1.5-2.9,1.5-5.1v-2.7c-1.6,1.4-3.5,2.2-5.9,2.2
		c-2.3,0-4.2-0.8-5.7-2.5c-1.5-1.8-2.2-4.1-2.2-6.8s0.7-5,2.2-6.8c1.4-1.7,3.3-2.5,5.6-2.5c2.2,0,4.2,0.7,6,2.1v-1.2
		c0-0.2,0.1-0.4,0.3-0.6c0.2-0.2,0.4-0.2,0.6-0.2c0.2,0,0.4,0.1,0.6,0.2s0.3,0.4,0.3,0.6v18.1c0,2.8-0.7,4.9-2,6.4
		c-1.3,1.4-3.3,2.2-5.9,2.2c-2.1,0-3.8-0.5-5.1-1.5C65.4,47.2,64.9,46.7,64.9,46.2z M72,39c2.3,0,4.2-0.8,5.8-2.3V25.7
		C76,24.2,74,23.5,72,23.5c-1.9,0-3.5,0.7-4.6,2.2c-1.1,1.4-1.7,3.2-1.7,5.6c0,2.3,0.6,4.2,1.7,5.7C68.5,38.3,70,39,72,39z"/>
    <path d="M92.7,22c1.3,0,2.5,0.3,3.4,0.9c0.6,0.4,1,0.8,1,1.2c0,0.2-0.1,0.4-0.2,0.5c-0.2,0.1-0.3,0.2-0.6,0.2c-0.1,0-0.3,0-0.4-0.1
		c-0.1-0.1-0.3-0.2-0.6-0.3s-0.5-0.3-0.8-0.4c-0.6-0.3-1.3-0.4-2-0.4c-1.5,0-2.7,0.6-3.6,1.9c-1,1.4-1.5,3.1-1.5,5.2v9.2
		c0,0.2-0.1,0.4-0.3,0.6c-0.2,0.2-0.4,0.2-0.6,0.2c-0.2,0-0.4-0.1-0.6-0.2s-0.3-0.4-0.3-0.6v-17c0-0.2,0.1-0.4,0.3-0.6
		s0.4-0.2,0.6-0.2c0.2,0,0.4,0.1,0.6,0.2c0.2,0.2,0.3,0.4,0.3,0.6v2.8h0c0.4-1.1,1.1-2,2-2.7C90.3,22.3,91.4,22,92.7,22z"/>
    <path d="M97.8,35.5c0-2.3,1.3-3.9,3.8-4.8c1.6-0.6,4.4-1,8.6-1.3v-0.6c0-1.7-0.4-3.1-1.1-4c-0.8-0.9-2-1.4-3.8-1.4
		c-1.4,0-2.7,0.3-4,0.8c-0.3,0.1-0.6,0.3-0.9,0.4c-0.3,0.2-0.5,0.3-0.6,0.3c-0.1,0.1-0.3,0.1-0.4,0.1c-0.5,0-0.7-0.2-0.7-0.7
		c0-0.4,0.6-0.9,1.7-1.4c1.5-0.7,3.1-1,5-1c2.3,0,4,0.6,5.1,1.9c1,1.2,1.4,2.8,1.4,5v11c0,0.2-0.1,0.4-0.3,0.6s-0.4,0.2-0.6,0.2
		c-0.2,0-0.4-0.1-0.6-0.2c-0.2-0.2-0.3-0.4-0.3-0.6v-0.5c-1.8,0.9-3.7,1.4-5.7,1.4c-1.8,0-3.3-0.4-4.7-1.3
		C98.5,38.5,97.8,37.2,97.8,35.5z M104.9,39.2c1.9,0,3.6-0.5,5.3-1.5v-7c-3.5,0.2-5.9,0.5-7.2,0.9c-2.4,0.7-3.6,2-3.6,3.7
		c0,1.3,0.5,2.3,1.6,2.9S103.4,39.2,104.9,39.2z"/>
    <path d="M118.8,22.3c1.3-0.2,2.7-0.3,4.1-0.3c3.1,0,5.6,0.8,7.5,2.5c1.9,1.7,2.9,3.9,2.9,6.8c0,2.7-0.8,4.9-2.3,6.7
		c-1.7,1.8-3.9,2.7-6.6,2.7c-1.9,0-3.5-0.3-4.9-1v9c0,0.2-0.1,0.4-0.3,0.6c-0.2,0.2-0.4,0.2-0.6,0.2c-0.2,0-0.4-0.1-0.6-0.2
		s-0.3-0.4-0.3-0.6V23.5C117.8,22.8,118.1,22.4,118.8,22.3z M119.5,23.7v14.4c1.4,0.7,3,1.1,4.8,1.1c2.1,0,3.9-0.7,5.2-2.2
		c1.3-1.4,2-3.3,2-5.8c0-2.4-0.7-4.3-2.2-5.7c-1.6-1.4-3.7-2.2-6.3-2.2C121.7,23.4,120.5,23.5,119.5,23.7z"/>
    <path d="M152.5,39.8v-9.6c0-2.5-0.6-4.2-1.7-5.3c-1-0.9-2.3-1.3-4.2-1.3c-2.4,0-4.2,1.1-5.4,3.2c-0.7,1.4-1.1,2.9-1.1,4.5v8.6
		c0,0.2-0.1,0.4-0.3,0.6c-0.2,0.2-0.4,0.2-0.6,0.2c-0.2,0-0.4-0.1-0.6-0.2s-0.3-0.4-0.3-0.6V13.5c0-0.2,0.1-0.4,0.3-0.6
		c0.2-0.2,0.4-0.2,0.6-0.2c0.2,0,0.4,0.1,0.6,0.2c0.2,0.2,0.3,0.4,0.3,0.6V26c1.3-2.7,3.6-4,6.8-4c2.2,0,3.9,0.5,5.2,1.6
		c1.4,1.3,2.2,3.3,2.2,6.2v10.1c0,0.2-0.1,0.4-0.3,0.6c-0.2,0.2-0.4,0.2-0.6,0.2s-0.4-0.1-0.6-0.2S152.5,40,152.5,39.8z"/>
    <path d="M158.8,35.5c0-2.3,1.3-3.9,3.8-4.8c1.6-0.6,4.4-1,8.6-1.3v-0.6c0-1.7-0.4-3.1-1.1-4c-0.8-0.9-2-1.4-3.8-1.4
		c-1.4,0-2.7,0.3-4,0.8c-0.3,0.1-0.6,0.3-0.9,0.4c-0.3,0.2-0.5,0.3-0.6,0.3s-0.3,0.1-0.4,0.1c-0.5,0-0.7-0.2-0.7-0.7
		c0-0.4,0.6-0.9,1.7-1.4c1.5-0.7,3.1-1,5-1c2.3,0,4,0.6,5.1,1.9c1,1.2,1.4,2.8,1.4,5v11c0,0.2-0.1,0.4-0.3,0.6
		c-0.2,0.2-0.4,0.2-0.6,0.2c-0.2,0-0.4-0.1-0.6-0.2c-0.2-0.2-0.3-0.4-0.3-0.6v-0.5c-1.8,0.9-3.7,1.4-5.7,1.4c-1.8,0-3.3-0.4-4.7-1.3
		C159.5,38.5,158.8,37.2,158.8,35.5z M166,39.2c1.9,0,3.6-0.5,5.3-1.5v-7c-3.5,0.2-5.9,0.5-7.2,0.9c-2.4,0.7-3.6,2-3.6,3.7
		c0,1.3,0.5,2.3,1.6,2.9S164.5,39.2,166,39.2z"/>
    <path d="M193,39.8v-9.6c0-2.5-0.6-4.2-1.7-5.3c-1-0.9-2.3-1.3-4.2-1.3c-2.4,0-4.2,1.1-5.4,3.2c-0.7,1.4-1.1,2.9-1.1,4.5v8.6
		c0,0.2-0.1,0.4-0.3,0.6s-0.4,0.2-0.6,0.2s-0.4-0.1-0.6-0.2c-0.2-0.2-0.3-0.4-0.3-0.6v-17c0-0.2,0.1-0.4,0.3-0.6
		c0.2-0.2,0.4-0.2,0.6-0.2s0.4,0.1,0.6,0.2s0.3,0.4,0.3,0.6V26c1.3-2.7,3.6-4,6.8-4c2.2,0,3.9,0.5,5.2,1.6c1.4,1.3,2.2,3.3,2.2,6.2
		v10.1c0,0.2-0.1,0.4-0.3,0.6c-0.2,0.2-0.4,0.2-0.6,0.2s-0.4-0.1-0.6-0.2S193,40,193,39.8z"/>
    <path d="M215.1,37.2c0.2,0,0.3,0.1,0.5,0.2s0.2,0.3,0.2,0.5c0,0.3-0.4,0.7-1.1,1.2c-1.8,1-3.8,1.5-6,1.5c-3,0-5.4-1-7.1-3.1
		c-1.5-1.7-2.2-3.9-2.2-6.5c0-2.6,0.8-4.7,2.3-6.4c1.6-1.8,3.7-2.7,6.5-2.7c2.5,0,4.6,0.9,6.2,2.6c1.4,1.6,2.2,3.6,2.2,6
		c0,0.7-0.3,1.1-1,1.1h-14.3c0.1,2,0.6,3.6,1.7,4.8c1.4,1.8,3.3,2.6,5.9,2.6c1.9,0,3.5-0.4,5-1.2c0.2-0.1,0.3-0.2,0.5-0.3
		s0.3-0.2,0.4-0.2s0.2-0.1,0.3-0.1C214.9,37.2,215,37.2,215.1,37.2z M201.2,30.3h13.6c0-2-0.6-3.6-1.7-4.7c-1.2-1.4-2.8-2.1-4.9-2.1
		c-2.3,0-4.1,0.8-5.4,2.3C201.8,27,201.3,28.5,201.2,30.3z"/>
</g>
</svg>


